<svg width="283" height="319" viewBox="0 0 283 319" fill="none" xmlns="http://www.w3.org/2000/svg">
<g filter="url(#filter0_d_33_243)">
<path d="M180.471 253.376C178.573 251.279 178.793 248.026 180.954 246.201L212.917 219.225C215.027 217.444 218.182 217.71 219.963 219.821L271.318 280.668C273.223 282.925 272.767 286.332 270.336 288.009L267.282 290.115C266.447 290.691 265.457 291 264.443 291L214.5 291L180.471 253.376Z" fill="white"/>
</g>
<path d="M242.038 251.351L244.274 254L209.834 283.067L207.598 280.418L242.038 251.351Z" fill="#CFCFCF"/>
<circle cx="209.853" cy="267.308" r="4.33333" transform="rotate(-130.164 209.853 267.308)" fill="black"/>
<circle cx="221.896" cy="241.267" r="4.33333" transform="rotate(-130.164 221.896 241.267)" fill="black"/>
<circle cx="194.201" cy="248.764" r="4.33333" transform="rotate(-130.164 194.201 248.764)" fill="black"/>
<circle cx="229.722" cy="250.539" r="4.33333" transform="rotate(-130.164 229.722 250.539)" fill="black"/>
<circle cx="240.367" cy="284.65" r="4.33333" transform="rotate(-130.164 240.367 284.65)" fill="black"/>
<circle cx="258.789" cy="284.979" r="4.33333" transform="rotate(-130.164 258.789 284.979)" fill="black"/>
<circle cx="223.269" cy="283.204" r="4.33333" transform="rotate(-130.164 223.269 283.204)" fill="black"/>
<circle cx="214.07" cy="231.994" r="4.33333" transform="rotate(-130.164 214.07 231.994)" fill="black"/>
<circle cx="221.896" cy="241.267" r="4.33333" transform="rotate(-130.164 221.896 241.267)" fill="black"/>
<circle cx="214.07" cy="231.994" r="4.33333" transform="rotate(-130.164 214.07 231.994)" fill="black"/>
<circle cx="202.027" cy="258.036" r="4.33333" transform="rotate(-130.164 202.027 258.036)" fill="black"/>
<g filter="url(#filter1_d_33_243)">
<path d="M120.164 180.359C118.384 178.249 118.651 175.095 120.761 173.314L152.857 146.224C154.968 144.443 158.122 144.71 159.903 146.82L211.688 208.176C213.429 210.239 213.218 213.313 211.21 215.119L197.44 227.499L179.326 243.138C177.194 244.979 173.964 244.696 172.184 242.514L159.94 227.499L120.164 180.359Z" fill="white"/>
</g>
<path d="M181.978 178.35L184.214 180.999L149.775 210.067L147.539 207.418L181.978 178.35Z" fill="#CFCFCF"/>
<g filter="url(#filter2_d_33_243)">
<path d="M49 34.5L49 4.97699C49 4.6701 49.4483 4.63824 49.4917 4.94204V4.94204C49.4972 4.98015 49.5114 5.01646 49.5334 5.04808L90.7169 64.3295C92.1867 66.4453 91.8083 69.3317 89.8427 70.9971L75.4839 83.1628L57.1896 97.1742C55.1097 98.7671 52.1529 98.4845 50.4124 96.5264L49.5 95.5V95.5C49.1799 95.1799 49 94.7456 49 94.2929L49 34.5Z" fill="white"/>
</g>
<path d="M62.2802 32L64.4372 34.7139L49 46L49 41.5L62.2802 32Z" fill="#CFCFCF"/>
<circle cx="183.704" cy="194.25" r="4.33333" transform="rotate(50.1062 183.704 194.25)" fill="black"/>
<circle cx="171.538" cy="220.235" r="4.33333" transform="rotate(50.1062 171.538 220.235)" fill="black"/>
<circle cx="199.268" cy="212.868" r="4.33333" transform="rotate(50.1062 199.268 212.868)" fill="black"/>
<circle cx="163.756" cy="210.926" r="4.33333" transform="rotate(50.1062 163.756 210.926)" fill="black"/>
<circle cx="152.415" cy="175.841" r="4.33333" transform="rotate(50.1062 152.415 175.841)" fill="black"/>
<circle cx="179.32" cy="229.544" r="4.33333" transform="rotate(50.1062 179.32 229.544)" fill="black"/>
<circle cx="171.538" cy="220.235" r="4.33333" transform="rotate(50.1062 171.538 220.235)" fill="black"/>
<circle cx="179.32" cy="229.544" r="4.33333" transform="rotate(50.1062 179.32 229.544)" fill="black"/>
<circle cx="191.486" cy="203.559" r="4.33333" transform="rotate(50.1062 191.486 203.559)" fill="black"/>
<path d="M59.4744 107.61C57.737 105.464 58.0681 102.316 60.2139 100.578L92.8546 74.1466C95.0006 72.4088 98.1491 72.7397 99.8869 74.8857L150.414 137.281C152.113 139.38 151.839 142.448 149.795 144.213L135.776 156.311L117.348 171.579C115.18 173.376 111.955 173.027 110.22 170.809L98.2842 155.549L59.4744 107.61Z" fill="white"/>
<path d="M121.317 106.858L123.498 109.552L88.475 137.913L86.2933 135.219L121.317 106.858Z" fill="#CFCFCF"/>
<circle cx="117.374" cy="140.538" r="4.33333" transform="rotate(51.2706 117.374 140.538)" fill="black"/>
<defs>
<filter id="filter0_d_33_243" x="175.179" y="218.045" width="101.318" height="80.9542" filterUnits="userSpaceOnUse" color-interpolation-filters="sRGB">
<feFlood flood-opacity="0" result="BackgroundImageFix"/>
<feColorMatrix in="SourceAlpha" type="matrix" values="0 0 0 0 0 0 0 0 0 0 0 0 0 0 0 0 0 0 127 0" result="hardAlpha"/>
<feOffset dy="4"/>
<feGaussianBlur stdDeviation="2"/>
<feComposite in2="hardAlpha" operator="out"/>
<feColorMatrix type="matrix" values="0 0 0 0 0 0 0 0 0 0 0 0 0 0 0 0 0 0 0.1 0"/>
<feBlend mode="normal" in2="BackgroundImageFix" result="effect1_dropShadow_33_243"/>
<feBlend mode="normal" in="SourceGraphic" in2="effect1_dropShadow_33_243" result="shape"/>
</filter>
<filter id="filter1_d_33_243" x="114.986" y="145.045" width="101.881" height="107.309" filterUnits="userSpaceOnUse" color-interpolation-filters="sRGB">
<feFlood flood-opacity="0" result="BackgroundImageFix"/>
<feColorMatrix in="SourceAlpha" type="matrix" values="0 0 0 0 0 0 0 0 0 0 0 0 0 0 0 0 0 0 127 0" result="hardAlpha"/>
<feOffset dy="4"/>
<feGaussianBlur stdDeviation="2"/>
<feComposite in2="hardAlpha" operator="out"/>
<feColorMatrix type="matrix" values="0 0 0 0 0 0 0 0 0 0 0 0 0 0 0 0 0 0 0.1 0"/>
<feBlend mode="normal" in2="BackgroundImageFix" result="effect1_dropShadow_33_243"/>
<feBlend mode="normal" in="SourceGraphic" in2="effect1_dropShadow_33_243" result="shape"/>
</filter>
<filter id="filter2_d_33_243" x="45" y="4.72983" width="50.6107" height="101.475" filterUnits="userSpaceOnUse" color-interpolation-filters="sRGB">
<feFlood flood-opacity="0" result="BackgroundImageFix"/>
<feColorMatrix in="SourceAlpha" type="matrix" values="0 0 0 0 0 0 0 0 0 0 0 0 0 0 0 0 0 0 127 0" result="hardAlpha"/>
<feOffset dy="4"/>
<feGaussianBlur stdDeviation="2"/>
<feComposite in2="hardAlpha" operator="out"/>
<feColorMatrix type="matrix" values="0 0 0 0 0 0 0 0 0 0 0 0 0 0 0 0 0 0 0.1 0"/>
<feBlend mode="normal" in2="BackgroundImageFix" result="effect1_dropShadow_33_243"/>
<feBlend mode="normal" in="SourceGraphic" in2="effect1_dropShadow_33_243" result="shape"/>
</filter>
</defs>
</svg>
