<svg width="515" height="131" viewBox="0 0 515 131" fill="none" xmlns="http://www.w3.org/2000/svg">
<g clip-path="url(#clip0_34_91)">
<g filter="url(#filter0_d_34_91)">
<path d="M6.64557 112.5V60.98H22.0353C27.2119 60.98 31.619 61.75 35.2565 63.29C38.8941 64.83 41.8089 66.8833 44.0007 69.45C46.2392 72.0167 47.8715 74.8867 48.8975 78.06C49.9235 81.2333 50.4365 84.43 50.4365 87.65C50.4365 91.4767 49.7369 94.93 48.3379 98.01C46.9854 101.043 45.12 103.657 42.7416 105.85C40.3632 107.997 37.6116 109.653 34.4871 110.82C31.3625 111.94 28.0513 112.5 24.5537 112.5H6.64557ZM16.7888 102.7H22.8048C25.3698 102.7 27.7016 102.373 29.8002 101.72C31.8988 101.02 33.6943 100.017 35.1866 98.71C36.7256 97.4033 37.8915 95.77 38.6843 93.81C39.5237 91.8033 39.9434 89.5167 39.9434 86.95C39.9434 83.59 39.3838 80.86 38.2645 78.76C37.1919 76.6133 35.8395 74.9567 34.2072 73.79C32.6216 72.6233 30.9894 71.83 29.3105 71.41C27.6316 70.9433 26.2092 70.71 25.0433 70.71H16.7888V102.7ZM56.6262 96.82C56.6262 93.6933 57.349 90.8933 58.7947 88.42C60.2871 85.9467 62.3624 84.01 65.0206 82.61C67.6788 81.1633 70.7335 80.44 74.1845 80.44C77.6822 80.44 80.7135 81.1633 83.2785 82.61C85.8434 84.01 87.8021 85.9467 89.1545 88.42C90.5536 90.8933 91.2532 93.6933 91.2532 96.82C91.2532 99.9467 90.5536 102.77 89.1545 105.29C87.8021 107.763 85.8434 109.723 83.2785 111.17C80.7135 112.617 77.6355 113.34 74.0446 113.34C70.6868 113.34 67.6788 112.687 65.0206 111.38C62.409 110.073 60.357 108.183 58.8647 105.71C57.3723 103.237 56.6262 100.273 56.6262 96.82ZM66.4896 96.89C66.4896 98.4767 66.8161 99.9233 67.469 101.23C68.1219 102.49 69.0079 103.493 70.1272 104.24C71.2465 104.987 72.5056 105.36 73.9047 105.36C75.4437 105.36 76.7728 104.987 77.892 104.24C79.0113 103.493 79.8741 102.49 80.4803 101.23C81.0866 99.9233 81.3897 98.4767 81.3897 96.89C81.3897 95.2567 81.0866 93.81 80.4803 92.55C79.8741 91.29 79.0113 90.2867 77.892 89.54C76.7728 88.7933 75.4437 88.42 73.9047 88.42C72.5056 88.42 71.2465 88.7933 70.1272 89.54C69.0079 90.2867 68.1219 91.29 67.469 92.55C66.8161 93.81 66.4896 95.2567 66.4896 96.89ZM107.853 81.91L108.622 87.3L108.482 86.88C109.695 84.8267 111.21 83.24 113.029 82.12C114.848 80.9533 117.04 80.37 119.605 80.37C121.284 80.37 122.753 80.6033 124.012 81.07C125.318 81.5367 126.414 82.2367 127.3 83.17C128.186 84.0567 128.792 85.2233 129.118 86.67L128.769 86.74C130.074 84.8267 131.637 83.2867 133.456 82.12C135.321 80.9533 137.256 80.37 139.262 80.37C142.293 80.37 144.695 81.2333 146.467 82.96C148.286 84.64 149.218 86.8333 149.265 89.54V112.5H139.541V93.6C139.495 92.2467 139.285 91.15 138.912 90.31C138.539 89.4233 137.676 88.9333 136.324 88.84C134.738 88.84 133.386 89.4 132.266 90.52C131.194 91.5933 130.378 92.9933 129.818 94.72C129.305 96.4 129.048 98.15 129.048 99.97V112.5H119.255V93.6C119.208 92.2467 118.952 91.15 118.485 90.31C118.066 89.4233 117.18 88.9333 115.827 88.84C114.288 88.84 112.982 89.4 111.91 90.52C110.884 91.5933 110.091 92.97 109.531 94.65C109.018 96.33 108.762 98.0567 108.762 99.83V112.5H98.9684V81.91H107.853ZM159.358 81.91H169.151V112.5H159.358V81.91ZM159.148 71.06C159.148 69.6133 159.708 68.4233 160.827 67.49C161.993 66.5567 163.229 66.09 164.534 66.09C165.84 66.09 167.029 66.5567 168.102 67.49C169.221 68.4233 169.781 69.6133 169.781 71.06C169.781 72.5067 169.221 73.6967 168.102 74.63C167.029 75.5167 165.84 75.96 164.534 75.96C163.229 75.96 161.993 75.5167 160.827 74.63C159.708 73.6967 159.148 72.5067 159.148 71.06ZM217.222 102.56H233.171V112.5H203.931L217.222 102.56ZM177.698 86.81C177.698 83.2633 178.374 79.9033 179.727 76.73C181.079 73.5567 182.945 70.7567 185.323 68.33C187.748 65.8567 190.546 63.92 193.718 62.52C196.889 61.12 200.293 60.42 203.931 60.42C207.522 60.42 210.903 61.12 214.074 62.52C217.245 63.92 220.043 65.8567 222.468 68.33C224.94 70.7567 226.852 73.5567 228.205 76.73C229.604 79.9033 230.303 83.2633 230.303 86.81C230.303 90.45 229.604 93.8567 228.205 97.03C226.852 100.203 224.94 103.003 222.468 105.43C220.043 107.81 217.245 109.677 214.074 111.03C210.903 112.383 207.522 113.06 203.931 113.06C200.293 113.06 196.889 112.383 193.718 111.03C190.546 109.677 187.748 107.81 185.323 105.43C182.945 103.003 181.079 100.203 179.727 97.03C178.374 93.8567 177.698 90.45 177.698 86.81ZM188.191 86.81C188.191 89.05 188.588 91.1733 189.38 93.18C190.22 95.14 191.362 96.89 192.808 98.43C194.3 99.9233 196.003 101.09 197.915 101.93C199.873 102.77 201.995 103.19 204.281 103.19C206.472 103.19 208.501 102.77 210.366 101.93C212.279 101.09 213.934 99.9233 215.333 98.43C216.732 96.9367 217.828 95.21 218.621 93.25C219.414 91.2433 219.81 89.0967 219.81 86.81C219.81 84.57 219.39 82.47 218.551 80.51C217.758 78.5033 216.639 76.7533 215.193 75.26C213.794 73.7667 212.139 72.6 210.227 71.76C208.315 70.92 206.239 70.5 204.001 70.5C201.762 70.5 199.687 70.92 197.775 71.76C195.863 72.6 194.184 73.7667 192.738 75.26C191.292 76.7533 190.173 78.5033 189.38 80.51C188.588 82.47 188.191 84.57 188.191 86.81ZM251.54 113.97C248.788 113.97 246.48 113.13 244.614 111.45C242.749 109.723 241.769 107.507 241.676 104.8V81.91H251.47V101.16C251.563 102.513 251.913 103.61 252.519 104.45C253.125 105.243 254.151 105.64 255.597 105.64C257.043 105.64 258.278 105.15 259.304 104.17C260.377 103.19 261.193 101.86 261.753 100.18C262.359 98.4533 262.662 96.5167 262.662 94.37V81.91H272.456V112.5H263.572L262.802 106.9L262.942 107.53C262.243 108.79 261.356 109.91 260.284 110.89C259.211 111.87 257.929 112.617 256.436 113.13C254.991 113.69 253.358 113.97 251.54 113.97ZM297.568 113.34C293.837 113.34 290.666 112.64 288.054 111.24C285.489 109.84 283.531 107.903 282.178 105.43C280.826 102.957 280.149 100.11 280.149 96.89C280.149 93.81 280.942 91.0333 282.528 88.56C284.113 86.0867 286.235 84.1267 288.894 82.68C291.552 81.1867 294.513 80.44 297.777 80.44C302.161 80.44 305.752 81.7233 308.55 84.29C311.395 86.81 313.237 90.4733 314.077 95.28L290.293 102.84L288.124 97.52L305.332 91.71L303.304 92.62C302.931 91.4067 302.254 90.3567 301.275 89.47C300.342 88.5367 298.92 88.07 297.008 88.07C295.562 88.07 294.28 88.42 293.161 89.12C292.088 89.7733 291.249 90.73 290.642 91.99C290.083 93.2033 289.803 94.65 289.803 96.33C289.803 98.2433 290.153 99.8533 290.852 101.16C291.552 102.42 292.508 103.377 293.72 104.03C294.933 104.683 296.285 105.01 297.777 105.01C298.85 105.01 299.876 104.823 300.855 104.45C301.881 104.077 302.884 103.587 303.863 102.98L308.201 110.26C306.568 111.193 304.796 111.94 302.884 112.5C301.019 113.06 299.246 113.34 297.568 113.34ZM331.128 113.13C328.609 113.13 326.254 112.687 324.062 111.8C321.917 110.913 320.098 109.677 318.606 108.09L322.663 102.7C324.156 104.053 325.531 105.033 326.791 105.64C328.096 106.2 329.262 106.48 330.288 106.48C331.081 106.48 331.781 106.41 332.387 106.27C333.04 106.083 333.553 105.827 333.926 105.5C334.299 105.127 334.486 104.66 334.486 104.1C334.486 103.307 334.159 102.677 333.506 102.21C332.9 101.743 332.107 101.37 331.128 101.09C330.148 100.763 329.099 100.437 327.98 100.11C325.182 99.2233 323.153 97.94 321.894 96.26C320.681 94.5333 320.075 92.6667 320.075 90.66C320.075 89.12 320.472 87.58 321.264 86.04C322.104 84.4533 323.41 83.1467 325.182 82.12C327.001 81.0467 329.332 80.51 332.177 80.51C334.742 80.51 336.911 80.7667 338.683 81.28C340.455 81.7933 342.134 82.6333 343.719 83.8L340.012 89.54C339.126 88.84 338.123 88.2567 337.004 87.79C335.931 87.2767 334.929 86.9967 333.996 86.95C333.156 86.9033 332.434 86.9967 331.827 87.23C331.268 87.4633 330.825 87.7667 330.498 88.14C330.172 88.5133 330.009 88.91 330.009 89.33C329.962 90.2167 330.288 90.9167 330.988 91.43C331.734 91.9433 332.667 92.34 333.786 92.62C334.905 92.9 336.001 93.2267 337.074 93.6C338.566 94.0667 339.849 94.6967 340.921 95.49C341.994 96.2833 342.81 97.24 343.37 98.36C343.976 99.4333 344.279 100.74 344.279 102.28C344.279 104.147 343.789 105.92 342.81 107.6C341.877 109.233 340.432 110.563 338.473 111.59C336.561 112.617 334.112 113.13 331.128 113.13ZM355.349 68.47H365.143V81.77H372.558V89.4H365.143V112.5H355.349V89.4H350.592V81.77H355.349V68.47Z" fill="white"/>
</g>
<path d="M32.062 78.9583C32.062 81.3746 30.1045 83.3333 27.6899 83.3333C25.2753 83.3333 23.3178 81.3746 23.3178 78.9583C23.3178 76.5421 25.2753 74.5833 27.6899 74.5833C30.1045 74.5833 32.062 76.5421 32.062 78.9583Z" fill="white"/>
<path d="M32.062 78.9583C32.062 81.3746 30.1045 83.3333 27.6899 83.3333C25.2753 83.3333 23.3178 81.3746 23.3178 78.9583C23.3178 76.5421 25.2753 74.5833 27.6899 74.5833C30.1045 74.5833 32.062 76.5421 32.062 78.9583Z" fill="white"/>
<path d="M224.434 102.523H237.487H250.54L250.667 112.5H224.434V102.523Z" fill="white"/>
<path d="M32.062 78.9583C32.062 81.3746 30.1045 83.3333 27.6899 83.3333C25.2753 83.3333 23.3178 81.3746 23.3178 78.9583C23.3178 76.5421 25.2753 74.5833 27.6899 74.5833C30.1045 74.5833 32.062 76.5421 32.062 78.9583Z" fill="white"/>
<path d="M32.062 93.5417C32.062 95.9578 30.1045 97.9167 27.6899 97.9167C25.2753 97.9167 23.3178 95.9578 23.3178 93.5417C23.3178 91.1255 25.2753 89.1667 27.6899 89.1667C30.1045 89.1667 32.062 91.1255 32.062 93.5417Z" fill="white"/>
</g>
<g clip-path="url(#clip1_34_91)">
<g filter="url(#filter1_d_34_91)">
<path d="M389.758 12.668L362.892 24.9213C357.822 27.2339 355.584 33.2143 357.894 38.2788L385.243 98.2424C387.553 103.307 393.536 105.538 398.606 103.225L425.472 90.9721C430.543 88.6595 432.78 82.6792 430.47 77.6146L403.121 17.651C400.811 12.5864 394.828 10.3554 389.758 12.668Z" fill="white"/>
</g>
<path fill-rule="evenodd" clip-rule="evenodd" d="M375.472 48.2873L390.248 80.6839L401.53 75.5386C403.733 74.5337 405.658 73.2302 407.305 71.6282C408.939 69.9968 410.197 68.1645 411.08 66.1313C411.949 64.0687 412.375 61.8894 412.357 59.5934C412.355 57.2547 411.805 54.8822 410.708 52.4759C409.784 50.4511 408.544 48.5884 406.988 46.8878C405.431 45.1871 403.58 43.8514 401.434 42.8806C399.317 41.8964 396.892 41.4427 394.159 41.5194C391.425 41.5962 388.428 42.3783 385.167 43.8656L375.472 48.2873ZM397.617 69.8787L393.827 71.6072L384.653 51.4914L389.853 49.1197C390.587 48.7847 391.55 48.5228 392.742 48.3338C393.92 48.1156 395.175 48.1455 396.509 48.4235C397.872 48.6881 399.199 49.3413 400.49 50.383C401.798 51.3819 402.933 52.9378 403.897 55.0506C404.633 56.6646 405.024 58.2231 405.071 59.7261C405.134 61.1863 404.868 62.5484 404.273 63.8122C403.708 65.0626 402.864 66.2094 401.743 67.2526C400.608 68.2664 399.233 69.1417 397.617 69.8787ZM396.64 52.2898C397.333 53.8091 396.661 55.6033 395.14 56.2971C393.619 56.9908 391.824 56.3215 391.131 54.8022C390.438 53.2828 391.11 51.4887 392.631 50.7949C394.152 50.1012 395.947 50.7705 396.64 52.2898ZM400.822 61.46C401.515 62.9794 400.844 64.7735 399.323 65.4673C397.802 66.161 396.007 65.4917 395.314 63.9724C394.621 62.4531 395.292 60.6589 396.813 59.9651C398.334 59.2714 400.129 59.9407 400.822 61.46Z" fill="#C9C9C9"/>
</g>
<g clip-path="url(#clip2_34_91)">
<g filter="url(#filter2_d_34_91)">
<path d="M429.234 105.25L400.549 98.2467C395.135 96.9249 391.816 91.4696 393.137 86.062L408.769 22.0366C410.089 16.629 415.548 13.3168 420.962 14.6386L449.647 21.6422C455.061 22.964 458.38 28.4193 457.059 33.827L441.427 97.8523C440.107 103.26 434.648 106.572 429.234 105.25Z" fill="white"/>
</g>
<path fill-rule="evenodd" clip-rule="evenodd" d="M409.511 74.5156L415.435 39.4046L427.661 41.4673C430.049 41.8702 432.245 42.6332 434.25 43.7564C436.249 44.9114 437.937 46.3574 439.314 48.0943C440.686 49.863 441.659 51.8588 442.234 54.0818C442.835 56.342 442.915 58.776 442.475 61.3839C442.105 63.5783 441.387 65.6978 440.322 67.7422C439.257 69.7867 437.812 71.5546 435.989 73.046C434.197 74.5427 431.971 75.6063 429.311 76.2368C426.65 76.8674 423.553 76.8845 420.018 76.2882L409.511 74.5156ZM425.34 47.9446L421.233 47.2517L417.555 69.0529L423.191 70.0037C423.987 70.138 424.985 70.1428 426.185 70.0181C427.379 69.9253 428.585 69.5726 429.801 68.9602C431.05 68.3531 432.164 67.3799 433.143 66.0405C434.148 64.7382 434.844 62.9422 435.231 60.6523C435.526 58.9032 435.502 57.2964 435.16 55.8322C434.844 54.4051 434.236 53.1577 433.335 52.09C432.467 51.0276 431.356 50.137 430.004 49.4182C428.646 48.7313 427.092 48.2401 425.34 47.9446ZM428.931 65.1909C429.209 63.5443 428.098 61.9838 426.449 61.7057C424.801 61.4276 423.239 62.5371 422.961 64.1837C422.683 65.8303 423.794 67.3907 425.443 67.6689C427.092 67.947 428.653 66.8375 428.931 65.1909ZM430.608 55.2523C430.886 53.6057 429.774 52.0453 428.126 51.7671C426.477 51.489 424.916 52.5985 424.638 54.2451C424.36 55.8917 425.471 57.4522 427.12 57.7303C428.768 58.0084 430.33 56.8989 430.608 55.2523Z" fill="#C9C9C9"/>
</g>
<g clip-path="url(#clip3_34_91)">
<g filter="url(#filter3_d_34_91)">
<path d="M435.824 116.16L416.844 93.54C413.262 89.271 413.815 82.9096 418.079 79.3315L468.566 36.968C472.83 33.3899 479.191 33.95 482.773 38.2191L501.753 60.839C505.335 65.108 504.782 71.4694 500.518 75.0474L450.031 117.411C445.767 120.989 439.406 120.429 435.824 116.16Z" fill="white"/>
</g>
<path fill-rule="evenodd" clip-rule="evenodd" d="M438.253 77.8595L465.53 54.9717L473.5 64.4701C475.056 66.3252 476.234 68.3302 477.031 70.4851C477.804 72.6606 478.152 74.856 478.074 77.0711C477.971 79.307 477.418 81.4574 476.414 83.5223C475.406 85.6327 473.889 87.5378 471.863 89.2379C470.158 90.6683 468.237 91.8164 466.1 92.682C463.964 93.5475 461.718 93.9568 459.363 93.9097C457.028 93.8874 454.644 93.2537 452.21 92.0085C449.775 90.7632 447.406 88.7678 445.102 86.0222L438.253 77.8595ZM467.533 67.8962L464.856 64.7053L447.919 78.9169L451.593 83.2951C452.111 83.9134 452.868 84.5642 453.862 85.2474C454.832 85.9513 455.978 86.4646 457.302 86.7873C458.646 87.1347 460.125 87.1161 461.739 86.7313C463.349 86.392 465.043 85.4761 466.822 83.9834C468.181 82.8431 469.205 81.6047 469.894 80.268C470.578 78.9767 470.924 77.6327 470.931 76.236C470.959 74.864 470.691 73.4659 470.127 72.0418C469.539 70.6385 468.675 69.2566 467.533 67.8962ZM459.083 83.3534C460.362 82.28 460.528 80.3715 459.454 79.0909C458.379 77.8102 456.471 77.6421 455.192 78.7155C453.912 79.7889 453.746 81.6974 454.821 82.9781C455.896 84.2587 457.804 84.4268 459.083 83.3534ZM466.804 76.8747C468.083 75.8014 468.249 73.8929 467.175 72.6122C466.1 71.3315 464.192 71.1635 462.913 72.2369C461.633 73.3102 461.467 75.2187 462.542 76.4994C463.617 77.7801 465.525 77.9481 466.804 76.8747Z" fill="#C9C9C9"/>
</g>
<defs>
<filter id="filter0_d_34_91" x="2.64557" y="60.42" width="373.912" height="61.55" filterUnits="userSpaceOnUse" color-interpolation-filters="sRGB">
<feFlood flood-opacity="0" result="BackgroundImageFix"/>
<feColorMatrix in="SourceAlpha" type="matrix" values="0 0 0 0 0 0 0 0 0 0 0 0 0 0 0 0 0 0 127 0" result="hardAlpha"/>
<feOffset dy="4"/>
<feGaussianBlur stdDeviation="2"/>
<feComposite in2="hardAlpha" operator="out"/>
<feColorMatrix type="matrix" values="0 0 0 0 0 0 0 0 0 0 0 0 0 0 0 0 0 0 0.15 0"/>
<feBlend mode="normal" in2="BackgroundImageFix" result="effect1_dropShadow_34_91"/>
<feBlend mode="normal" in="SourceGraphic" in2="effect1_dropShadow_34_91" result="shape"/>
</filter>
<filter id="filter1_d_34_91" x="352.984" y="11.7548" width="82.3969" height="100.384" filterUnits="userSpaceOnUse" color-interpolation-filters="sRGB">
<feFlood flood-opacity="0" result="BackgroundImageFix"/>
<feColorMatrix in="SourceAlpha" type="matrix" values="0 0 0 0 0 0 0 0 0 0 0 0 0 0 0 0 0 0 127 0" result="hardAlpha"/>
<feOffset dy="4"/>
<feGaussianBlur stdDeviation="2"/>
<feComposite in2="hardAlpha" operator="out"/>
<feColorMatrix type="matrix" values="0 0 0 0 0 0 0 0 0 0 0 0 0 0 0 0 0 0 0.25 0"/>
<feBlend mode="normal" in2="BackgroundImageFix" result="effect1_dropShadow_34_91"/>
<feBlend mode="normal" in="SourceGraphic" in2="effect1_dropShadow_34_91" result="shape"/>
</filter>
<filter id="filter2_d_34_91" x="388.847" y="14.348" width="72.502" height="99.193" filterUnits="userSpaceOnUse" color-interpolation-filters="sRGB">
<feFlood flood-opacity="0" result="BackgroundImageFix"/>
<feColorMatrix in="SourceAlpha" type="matrix" values="0 0 0 0 0 0 0 0 0 0 0 0 0 0 0 0 0 0 127 0" result="hardAlpha"/>
<feOffset dy="4"/>
<feGaussianBlur stdDeviation="2"/>
<feComposite in2="hardAlpha" operator="out"/>
<feColorMatrix type="matrix" values="0 0 0 0 0 0 0 0 0 0 0 0 0 0 0 0 0 0 0.25 0"/>
<feBlend mode="normal" in2="BackgroundImageFix" result="effect1_dropShadow_34_91"/>
<feBlend mode="normal" in="SourceGraphic" in2="effect1_dropShadow_34_91" result="shape"/>
</filter>
<filter id="filter3_d_34_91" x="410.481" y="34.6117" width="97.6353" height="93.1555" filterUnits="userSpaceOnUse" color-interpolation-filters="sRGB">
<feFlood flood-opacity="0" result="BackgroundImageFix"/>
<feColorMatrix in="SourceAlpha" type="matrix" values="0 0 0 0 0 0 0 0 0 0 0 0 0 0 0 0 0 0 127 0" result="hardAlpha"/>
<feOffset dy="4"/>
<feGaussianBlur stdDeviation="2"/>
<feComposite in2="hardAlpha" operator="out"/>
<feColorMatrix type="matrix" values="0 0 0 0 0 0 0 0 0 0 0 0 0 0 0 0 0 0 0.25 0"/>
<feBlend mode="normal" in2="BackgroundImageFix" result="effect1_dropShadow_34_91"/>
<feBlend mode="normal" in="SourceGraphic" in2="effect1_dropShadow_34_91" result="shape"/>
</filter>
<clipPath id="clip0_34_91">
<rect width="376" height="70" fill="white" transform="translate(0 60)"/>
</clipPath>
<clipPath id="clip1_34_91">
<rect width="102.806" height="66.5975" fill="white" transform="translate(395.593) rotate(65.4825)"/>
</clipPath>
<clipPath id="clip2_34_91">
<rect width="102.806" height="66.5975" fill="white" transform="matrix(-0.143285 0.989681 0.989681 0.143285 407.564 4.60125)"/>
</clipPath>
<clipPath id="clip3_34_91">
<rect width="102.806" height="66.5975" fill="white" transform="matrix(0.766044 -0.642788 -0.642788 -0.766044 435.641 130.106)"/>
</clipPath>
</defs>
</svg>
