<svg width="36" height="25" viewBox="0 0 36 25" fill="none" xmlns="http://www.w3.org/2000/svg">
<path d="M32.0303 16.958L31.5967 17.3916C31.4131 17.5752 31.1162 17.5752 30.9346 17.3916L27.1377 13.5967C26.9541 13.4131 26.9541 13.1162 27.1377 12.9346L30.9346 9.1377C31.1182 8.9541 31.415 8.9541 31.5967 9.1377L32.0303 9.57129C32.2158 9.75684 32.2119 10.0596 32.0225 10.2412L29.6689 12.4834H35.2822C35.542 12.4834 35.751 12.6924 35.751 12.9521V13.5771C35.751 13.8369 35.542 14.0459 35.2822 14.0459H29.6689L32.0225 16.2881C32.2139 16.4697 32.2178 16.7725 32.0303 16.958Z" fill="#B5B5B5"/>
<path d="M21.25 20V6.93163C21.25 5.86679 20.409 4.99999 19.375 4.99999H15V7.49999H18.75V22.5L20.5 22.5C20.8453 22.5 21.25 22.5765 21.25 22.2312V21C21.25 20.6547 21.25 21.0431 21.25 20ZM12.1969 2.53945L4.69687 4.48241C4.14023 4.62655 3.75 5.14452 3.75 5.73905L4 22C3.65469 22 6 22 4 22C4 22.3453 4.15471 22.5 4.50002 22.5L13.75 22.5V3.79609C13.75 2.95312 12.9859 2.33476 12.1969 2.53945ZM10.3125 13.75C9.79492 13.75 9.375 13.1902 9.375 12.5C9.375 11.8098 9.79492 11.25 10.3125 11.25C10.8301 11.25 11.25 11.8098 11.25 12.5C11.25 13.1902 10.8301 13.75 10.3125 13.75Z" fill="#D9D9D9"/>
</svg>
