<svg width="129" height="24" viewBox="0 0 129 24" fill="none" xmlns="http://www.w3.org/2000/svg">
<path d="M2.28 18V0.335999H7.56C9.336 0.335999 10.848 0.599999 12.096 1.128C13.344 1.656 14.344 2.36 15.096 3.24C15.864 4.12 16.424 5.104 16.776 6.192C17.128 7.28 17.304 8.376 17.304 9.48C17.304 10.792 17.064 11.976 16.584 13.032C16.12 14.072 15.48 14.968 14.664 15.72C13.848 16.456 12.904 17.024 11.832 17.424C10.76 17.808 9.624 18 8.424 18H2.28ZM5.76 14.64H7.824C8.704 14.64 9.504 14.528 10.224 14.304C10.944 14.064 11.56 13.72 12.072 13.272C12.6 12.824 13 12.264 13.272 11.592C13.56 10.904 13.704 10.12 13.704 9.24C13.704 8.088 13.512 7.152 13.128 6.432C12.76 5.696 12.296 5.128 11.736 4.728C11.192 4.328 10.632 4.056 10.056 3.912C9.48 3.752 8.992 3.672 8.592 3.672H5.76V14.64ZM19.4276 12.624C19.4276 11.552 19.6756 10.592 20.1716 9.744C20.6836 8.896 21.3956 8.232 22.3076 7.752C23.2196 7.256 24.2676 7.008 25.4516 7.008C26.6516 7.008 27.6916 7.256 28.5716 7.752C29.4516 8.232 30.1236 8.896 30.5876 9.744C31.0676 10.592 31.3076 11.552 31.3076 12.624C31.3076 13.696 31.0676 14.664 30.5876 15.528C30.1236 16.376 29.4516 17.048 28.5716 17.544C27.6916 18.04 26.6356 18.288 25.4036 18.288C24.2516 18.288 23.2196 18.064 22.3076 17.616C21.4116 17.168 20.7076 16.52 20.1956 15.672C19.6836 14.824 19.4276 13.808 19.4276 12.624ZM22.8116 12.648C22.8116 13.192 22.9236 13.688 23.1476 14.136C23.3716 14.568 23.6756 14.912 24.0596 15.168C24.4436 15.424 24.8756 15.552 25.3556 15.552C25.8836 15.552 26.3396 15.424 26.7236 15.168C27.1076 14.912 27.4036 14.568 27.6116 14.136C27.8196 13.688 27.9236 13.192 27.9236 12.648C27.9236 12.088 27.8196 11.592 27.6116 11.16C27.4036 10.728 27.1076 10.384 26.7236 10.128C26.3396 9.872 25.8836 9.744 25.3556 9.744C24.8756 9.744 24.4436 9.872 24.0596 10.128C23.6756 10.384 23.3716 10.728 23.1476 11.16C22.9236 11.592 22.8116 12.088 22.8116 12.648ZM37.0026 7.512L37.2666 9.36L37.2186 9.216C37.6346 8.512 38.1546 7.968 38.7786 7.584C39.4026 7.184 40.1546 6.984 41.0346 6.984C41.6106 6.984 42.1146 7.064 42.5466 7.224C42.9946 7.384 43.3706 7.624 43.6746 7.944C43.9786 8.248 44.1866 8.648 44.2986 9.144L44.1786 9.168C44.6266 8.512 45.1626 7.984 45.7866 7.584C46.4266 7.184 47.0906 6.984 47.7786 6.984C48.8186 6.984 49.6426 7.28 50.2506 7.872C50.8746 8.448 51.1946 9.2 51.2106 10.128V18H47.8746V11.52C47.8586 11.056 47.7866 10.68 47.6586 10.392C47.5306 10.088 47.2346 9.92 46.7706 9.888C46.2266 9.888 45.7626 10.08 45.3786 10.464C45.0106 10.832 44.7306 11.312 44.5386 11.904C44.3626 12.48 44.2746 13.08 44.2746 13.704V18H40.9146V11.52C40.8986 11.056 40.8106 10.68 40.6506 10.392C40.5066 10.088 40.2026 9.92 39.7386 9.888C39.2106 9.888 38.7626 10.08 38.3946 10.464C38.0426 10.832 37.7706 11.304 37.5786 11.88C37.4026 12.456 37.3146 13.048 37.3146 13.656V18H33.9546V7.512H37.0026ZM54.6733 7.512H58.0333V18H54.6733V7.512ZM54.6013 3.792C54.6013 3.296 54.7933 2.888 55.1773 2.568C55.5773 2.248 56.0013 2.088 56.4493 2.088C56.8973 2.088 57.3053 2.248 57.6733 2.568C58.0573 2.888 58.2493 3.296 58.2493 3.792C58.2493 4.288 58.0573 4.696 57.6733 5.016C57.3053 5.32 56.8973 5.472 56.4493 5.472C56.0013 5.472 55.5773 5.32 55.1773 5.016C54.7933 4.696 54.6013 4.288 54.6013 3.792ZM74.5256 14.592H79.9976V18H69.9656L74.5256 14.592ZM60.9656 9.192C60.9656 7.976 61.1976 6.824 61.6616 5.736C62.1256 4.648 62.7656 3.688 63.5816 2.856C64.4136 2.008 65.3736 1.344 66.4616 0.863999C67.5496 0.383999 68.7176 0.144 69.9656 0.144C71.1976 0.144 72.3576 0.383999 73.4456 0.863999C74.5336 1.344 75.4936 2.008 76.3256 2.856C77.1736 3.688 77.8296 4.648 78.2936 5.736C78.7736 6.824 79.0136 7.976 79.0136 9.192C79.0136 10.44 78.7736 11.608 78.2936 12.696C77.8296 13.784 77.1736 14.744 76.3256 15.576C75.4936 16.392 74.5336 17.032 73.4456 17.496C72.3576 17.96 71.1976 18.192 69.9656 18.192C68.7176 18.192 67.5496 17.96 66.4616 17.496C65.3736 17.032 64.4136 16.392 63.5816 15.576C62.7656 14.744 62.1256 13.784 61.6616 12.696C61.1976 11.608 60.9656 10.44 60.9656 9.192ZM64.5656 9.192C64.5656 9.96 64.7016 10.688 64.9736 11.376C65.2616 12.048 65.6536 12.648 66.1496 13.176C66.6616 13.688 67.2456 14.088 67.9016 14.376C68.5736 14.664 69.3016 14.808 70.0856 14.808C70.8376 14.808 71.5336 14.664 72.1736 14.376C72.8296 14.088 73.3976 13.688 73.8776 13.176C74.3576 12.664 74.7336 12.072 75.0056 11.4C75.2776 10.712 75.4136 9.976 75.4136 9.192C75.4136 8.424 75.2696 7.704 74.9816 7.032C74.7096 6.344 74.3256 5.744 73.8296 5.232C73.3496 4.72 72.7816 4.32 72.1256 4.032C71.4696 3.744 70.7576 3.6 69.9896 3.6C69.2216 3.6 68.5096 3.744 67.8536 4.032C67.1976 4.32 66.6216 4.72 66.1256 5.232C65.6296 5.744 65.2456 6.344 64.9736 7.032C64.7016 7.704 64.5656 8.424 64.5656 9.192ZM86.2995 18.504C85.3555 18.504 84.5635 18.216 83.9235 17.64C83.2835 17.048 82.9475 16.288 82.9155 15.36V7.512H86.2755V14.112C86.3075 14.576 86.4275 14.952 86.6355 15.24C86.8435 15.512 87.1955 15.648 87.6915 15.648C88.1875 15.648 88.6115 15.48 88.9635 15.144C89.3315 14.808 89.6115 14.352 89.8035 13.776C90.0115 13.184 90.1155 12.52 90.1155 11.784V7.512H93.4755V18H90.4275L90.1635 16.08L90.2115 16.296C89.9715 16.728 89.6675 17.112 89.2995 17.448C88.9315 17.784 88.4915 18.04 87.9795 18.216C87.4835 18.408 86.9235 18.504 86.2995 18.504ZM102.091 18.288C100.811 18.288 99.7231 18.048 98.8271 17.568C97.9471 17.088 97.2751 16.424 96.8111 15.576C96.3471 14.728 96.1151 13.752 96.1151 12.648C96.1151 11.592 96.3871 10.64 96.9311 9.792C97.4751 8.944 98.2031 8.272 99.1151 7.776C100.027 7.264 101.043 7.008 102.163 7.008C103.667 7.008 104.899 7.448 105.859 8.328C106.835 9.192 107.467 10.448 107.755 12.096L99.5951 14.688L98.8511 12.864L104.755 10.872L104.059 11.184C103.931 10.768 103.699 10.408 103.363 10.104C103.043 9.784 102.555 9.624 101.899 9.624C101.403 9.624 100.963 9.744 100.579 9.984C100.211 10.208 99.9231 10.536 99.7151 10.968C99.5231 11.384 99.4271 11.88 99.4271 12.456C99.4271 13.112 99.5471 13.664 99.7871 14.112C100.027 14.544 100.355 14.872 100.771 15.096C101.187 15.32 101.651 15.432 102.163 15.432C102.531 15.432 102.883 15.368 103.219 15.24C103.571 15.112 103.915 14.944 104.251 14.736L105.739 17.232C105.179 17.552 104.571 17.808 103.915 18C103.275 18.192 102.667 18.288 102.091 18.288ZM113.605 18.216C112.741 18.216 111.933 18.064 111.181 17.76C110.445 17.456 109.821 17.032 109.309 16.488L110.701 14.64C111.213 15.104 111.685 15.44 112.117 15.648C112.565 15.84 112.965 15.936 113.317 15.936C113.589 15.936 113.829 15.912 114.037 15.864C114.261 15.8 114.437 15.712 114.565 15.6C114.693 15.472 114.757 15.312 114.757 15.12C114.757 14.848 114.645 14.632 114.421 14.472C114.213 14.312 113.941 14.184 113.605 14.088C113.269 13.976 112.909 13.864 112.525 13.752C111.565 13.448 110.869 13.008 110.437 12.432C110.021 11.84 109.813 11.2 109.813 10.512C109.813 9.984 109.949 9.456 110.221 8.928C110.509 8.384 110.957 7.936 111.565 7.584C112.189 7.216 112.989 7.032 113.965 7.032C114.845 7.032 115.589 7.12 116.197 7.296C116.805 7.472 117.381 7.76 117.925 8.16L116.653 10.128C116.349 9.888 116.005 9.688 115.621 9.528C115.253 9.352 114.909 9.256 114.589 9.24C114.301 9.224 114.053 9.256 113.845 9.336C113.653 9.416 113.501 9.52 113.389 9.648C113.277 9.776 113.221 9.912 113.221 10.056C113.205 10.36 113.317 10.6 113.557 10.776C113.813 10.952 114.133 11.088 114.517 11.184C114.901 11.28 115.277 11.392 115.645 11.52C116.157 11.68 116.597 11.896 116.965 12.168C117.333 12.44 117.613 12.768 117.805 13.152C118.013 13.52 118.117 13.968 118.117 14.496C118.117 15.136 117.949 15.744 117.613 16.32C117.293 16.88 116.797 17.336 116.125 17.688C115.469 18.04 114.629 18.216 113.605 18.216ZM121.915 2.904H125.275V7.464H127.819V10.08H125.275V18H121.915V10.08H120.283V7.464H121.915V2.904Z" fill="white"/>
<path d="M11 6.5C11 7.32843 10.3284 8 9.5 8C8.67157 8 8 7.32843 8 6.5C8 5.67157 8.67157 5 9.5 5C10.3284 5 11 5.67157 11 6.5Z" fill="white"/>
<path d="M11 6.5C11 7.32843 10.3284 8 9.5 8C8.67157 8 8 7.32843 8 6.5C8 5.67157 8.67157 5 9.5 5C10.3284 5 11 5.67157 11 6.5Z" fill="white"/>
<path d="M77 14.5792H85.9567L86 18H77V14.5792Z" fill="white"/>
<path d="M11 6.5C11 7.32843 10.3284 8 9.5 8C8.67157 8 8 7.32843 8 6.5C8 5.67157 8.67157 5 9.5 5C10.3284 5 11 5.67157 11 6.5Z" fill="white"/>
<path d="M11 11.5C11 12.3284 10.3284 13 9.5 13C8.67157 13 8 12.3284 8 11.5C8 10.6716 8.67157 10 9.5 10C10.3284 10 11 10.6716 11 11.5Z" fill="white"/>
</svg>
